<svg width="497" height="144" viewBox="0 0 497 144" fill="none" xmlns="http://www.w3.org/2000/svg">
<g filter="url(#filter0_d_5_12)">
<rect x="28" y="28" width="431" height="78" rx="39" fill="url(#paint0_linear_5_12)" shape-rendering="crispEdges"/>
</g>
<path d="M54.834 76V57.8H70.512V76H67.964V59.386L68.588 60.062H56.758L57.408 59.386V76H54.834ZM81.6735 76.156C80.2868 76.156 79.0562 75.8527 77.9815 75.246C76.9068 74.6393 76.0575 73.8073 75.4335 72.75C74.8095 71.6753 74.4975 70.462 74.4975 69.11C74.4975 67.7407 74.8095 66.5273 75.4335 65.47C76.0575 64.4127 76.9068 63.5893 77.9815 63C79.0562 62.3933 80.2868 62.09 81.6735 62.09C83.0428 62.09 84.2648 62.3933 85.3395 63C86.4315 63.5893 87.2808 64.4127 87.8875 65.47C88.5115 66.51 88.8235 67.7233 88.8235 69.11C88.8235 70.4793 88.5115 71.6927 87.8875 72.75C87.2808 73.8073 86.4315 74.6393 85.3395 75.246C84.2648 75.8527 83.0428 76.156 81.6735 76.156ZM81.6735 73.972C82.5575 73.972 83.3462 73.7727 84.0395 73.374C84.7502 72.9753 85.3048 72.412 85.7035 71.684C86.1022 70.9387 86.3015 70.0807 86.3015 69.11C86.3015 68.122 86.1022 67.2727 85.7035 66.562C85.3048 65.834 84.7502 65.2707 84.0395 64.872C83.3462 64.4733 82.5575 64.274 81.6735 64.274C80.7895 64.274 80.0008 64.4733 79.3075 64.872C78.6142 65.2707 78.0595 65.834 77.6435 66.562C77.2275 67.2727 77.0195 68.122 77.0195 69.11C77.0195 70.0807 77.2275 70.9387 77.6435 71.684C78.0595 72.412 78.6142 72.9753 79.3075 73.374C80.0008 73.7727 80.7895 73.972 81.6735 73.972ZM98.4338 76.156C97.0298 76.156 95.7731 75.8527 94.6638 75.246C93.5718 74.6393 92.7138 73.8073 92.0898 72.75C91.4658 71.6927 91.1538 70.4793 91.1538 69.11C91.1538 67.7407 91.4658 66.5273 92.0898 65.47C92.7138 64.4127 93.5718 63.5893 94.6638 63C95.7731 62.3933 97.0298 62.09 98.4338 62.09C99.6818 62.09 100.791 62.3413 101.762 62.844C102.75 63.3293 103.512 64.0573 104.05 65.028L102.152 66.25C101.701 65.574 101.146 65.08 100.488 64.768C99.8464 64.4387 99.1531 64.274 98.4078 64.274C97.5064 64.274 96.7004 64.4733 95.9898 64.872C95.2791 65.2707 94.7158 65.834 94.2998 66.562C93.8838 67.2727 93.6758 68.122 93.6758 69.11C93.6758 70.098 93.8838 70.956 94.2998 71.684C94.7158 72.412 95.2791 72.9753 95.9898 73.374C96.7004 73.7727 97.5064 73.972 98.4078 73.972C99.1531 73.972 99.8464 73.816 100.488 73.504C101.146 73.1747 101.701 72.672 102.152 71.996L104.05 73.192C103.512 74.1453 102.75 74.882 101.762 75.402C100.791 75.9047 99.6818 76.156 98.4338 76.156ZM107.281 76V62.22H109.855L115.783 72.412H114.743L120.827 62.22H123.167V76H120.905V65.028L121.321 65.262L115.757 74.44H114.665L109.075 65.08L109.569 64.976V76H107.281ZM133.927 76.156C132.541 76.156 131.31 75.8527 130.235 75.246C129.161 74.6393 128.311 73.8073 127.687 72.75C127.063 71.6753 126.751 70.462 126.751 69.11C126.751 67.7407 127.063 66.5273 127.687 65.47C128.311 64.4127 129.161 63.5893 130.235 63C131.31 62.3933 132.541 62.09 133.927 62.09C135.297 62.09 136.519 62.3933 137.593 63C138.685 63.5893 139.535 64.4127 140.141 65.47C140.765 66.51 141.077 67.7233 141.077 69.11C141.077 70.4793 140.765 71.6927 140.141 72.75C139.535 73.8073 138.685 74.6393 137.593 75.246C136.519 75.8527 135.297 76.156 133.927 76.156ZM133.927 73.972C134.811 73.972 135.6 73.7727 136.293 73.374C137.004 72.9753 137.559 72.412 137.957 71.684C138.356 70.9387 138.555 70.0807 138.555 69.11C138.555 68.122 138.356 67.2727 137.957 66.562C137.559 65.834 137.004 65.2707 136.293 64.872C135.6 64.4733 134.811 64.274 133.927 64.274C133.043 64.274 132.255 64.4733 131.561 64.872C130.868 65.2707 130.313 65.834 129.897 66.562C129.481 67.2727 129.273 68.122 129.273 69.11C129.273 70.0807 129.481 70.9387 129.897 71.684C130.313 72.412 130.868 72.9753 131.561 73.374C132.255 73.7727 133.043 73.972 133.927 73.972ZM146.904 76V63.754L147.528 64.404H141.86V62.22H154.444V64.404H148.802L149.4 63.754V76H146.904ZM164.302 76.156C163.158 76.156 162.109 75.896 161.156 75.376C160.22 74.8387 159.466 74.05 158.894 73.01C158.339 71.97 158.062 70.67 158.062 69.11C158.062 67.55 158.331 66.25 158.868 65.21C159.423 64.17 160.168 63.39 161.104 62.87C162.057 62.35 163.123 62.09 164.302 62.09C165.654 62.09 166.85 62.3847 167.89 62.974C168.93 63.5633 169.753 64.3867 170.36 65.444C170.967 66.484 171.27 67.706 171.27 69.11C171.27 70.514 170.967 71.7447 170.36 72.802C169.753 73.8593 168.93 74.6827 167.89 75.272C166.85 75.8613 165.654 76.156 164.302 76.156ZM156.996 81.044V62.22H159.388V65.938L159.232 69.136L159.492 72.334V81.044H156.996ZM164.094 73.972C164.978 73.972 165.767 73.7727 166.46 73.374C167.171 72.9753 167.725 72.412 168.124 71.684C168.54 70.9387 168.748 70.0807 168.748 69.11C168.748 68.122 168.54 67.2727 168.124 66.562C167.725 65.834 167.171 65.2707 166.46 64.872C165.767 64.4733 164.978 64.274 164.094 64.274C163.227 64.274 162.439 64.4733 161.728 64.872C161.035 65.2707 160.48 65.834 160.064 66.562C159.665 67.2727 159.466 68.122 159.466 69.11C159.466 70.0807 159.665 70.9387 160.064 71.684C160.48 72.412 161.035 72.9753 161.728 73.374C162.439 73.7727 163.227 73.972 164.094 73.972ZM181.033 76.156C179.559 76.156 178.259 75.8527 177.133 75.246C176.023 74.6393 175.157 73.8073 174.533 72.75C173.926 71.6927 173.623 70.4793 173.623 69.11C173.623 67.7407 173.917 66.5273 174.507 65.47C175.113 64.4127 175.937 63.5893 176.977 63C178.034 62.3933 179.221 62.09 180.539 62.09C181.873 62.09 183.052 62.3847 184.075 62.974C185.097 63.5633 185.895 64.3953 186.467 65.47C187.056 66.5273 187.351 67.7667 187.351 69.188C187.351 69.292 187.342 69.4133 187.325 69.552C187.325 69.6907 187.316 69.8207 187.299 69.942H175.573V68.148H185.999L184.985 68.772C185.002 67.888 184.82 67.0993 184.439 66.406C184.057 65.7127 183.529 65.1753 182.853 64.794C182.194 64.3953 181.423 64.196 180.539 64.196C179.672 64.196 178.901 64.3953 178.225 64.794C177.549 65.1753 177.02 65.7213 176.639 66.432C176.257 67.1253 176.067 67.9227 176.067 68.824V69.24C176.067 70.1587 176.275 70.982 176.691 71.71C177.124 72.4207 177.722 72.9753 178.485 73.374C179.247 73.7727 180.123 73.972 181.111 73.972C181.925 73.972 182.662 73.8333 183.321 73.556C183.997 73.2787 184.586 72.8627 185.089 72.308L186.467 73.92C185.843 74.648 185.063 75.2027 184.127 75.584C183.208 75.9653 182.177 76.156 181.033 76.156ZM193.369 76V63.754L193.993 64.404H188.325V62.22H200.909V64.404H195.267L195.865 63.754V76H193.369ZM209.831 66.9C211.582 66.9173 212.916 67.316 213.835 68.096C214.754 68.876 215.213 69.9767 215.213 71.398C215.213 72.8887 214.71 74.0413 213.705 74.856C212.7 75.6533 211.278 76.0433 209.441 76.026L203.461 76V62.22H205.957V66.874L209.831 66.9ZM209.233 74.128C210.36 74.1453 211.209 73.92 211.781 73.452C212.37 72.984 212.665 72.2907 212.665 71.372C212.665 70.4707 212.379 69.812 211.807 69.396C211.235 68.98 210.377 68.7633 209.233 68.746L205.957 68.694V74.102L209.233 74.128ZM225.398 76V62.22H238.164V76H235.668V63.78L236.266 64.404H227.296L227.894 63.78V76H225.398ZM250.3 76.156C249.156 76.156 248.108 75.896 247.154 75.376C246.218 74.8387 245.464 74.05 244.892 73.01C244.338 71.97 244.06 70.67 244.06 69.11C244.06 67.55 244.329 66.25 244.866 65.21C245.421 64.17 246.166 63.39 247.102 62.87C248.056 62.35 249.122 62.09 250.3 62.09C251.652 62.09 252.848 62.3847 253.888 62.974C254.928 63.5633 255.752 64.3867 256.358 65.444C256.965 66.484 257.268 67.706 257.268 69.11C257.268 70.514 256.965 71.7447 256.358 72.802C255.752 73.8593 254.928 74.6827 253.888 75.272C252.848 75.8613 251.652 76.156 250.3 76.156ZM242.994 81.044V62.22H245.386V65.938L245.23 69.136L245.49 72.334V81.044H242.994ZM250.092 73.972C250.976 73.972 251.765 73.7727 252.458 73.374C253.169 72.9753 253.724 72.412 254.122 71.684C254.538 70.9387 254.746 70.0807 254.746 69.11C254.746 68.122 254.538 67.2727 254.122 66.562C253.724 65.834 253.169 65.2707 252.458 64.872C251.765 64.4733 250.976 64.274 250.092 64.274C249.226 64.274 248.437 64.4733 247.726 64.872C247.033 65.2707 246.478 65.834 246.062 66.562C245.664 67.2727 245.464 68.122 245.464 69.11C245.464 70.0807 245.664 70.9387 246.062 71.684C246.478 72.412 247.033 72.9753 247.726 73.374C248.437 73.7727 249.226 73.972 250.092 73.972ZM260.895 76V62.22H263.391V72.256L271.841 62.22H274.103V76H271.607V65.964L263.183 76H260.895ZM278.947 76V62.22H281.521L287.449 72.412H286.409L292.493 62.22H294.833V76H292.571V65.028L292.987 65.262L287.423 74.44H286.331L280.741 65.08L281.235 64.976V76H278.947ZM305.827 76.156C304.354 76.156 303.054 75.8527 301.927 75.246C300.818 74.6393 299.951 73.8073 299.327 72.75C298.721 71.6927 298.417 70.4793 298.417 69.11C298.417 67.7407 298.712 66.5273 299.301 65.47C299.908 64.4127 300.731 63.5893 301.771 63C302.829 62.3933 304.016 62.09 305.333 62.09C306.668 62.09 307.847 62.3847 308.869 62.974C309.892 63.5633 310.689 64.3953 311.261 65.47C311.851 66.5273 312.145 67.7667 312.145 69.188C312.145 69.292 312.137 69.4133 312.119 69.552C312.119 69.6907 312.111 69.8207 312.093 69.942H300.367V68.148H310.793L309.779 68.772C309.797 67.888 309.615 67.0993 309.233 66.406C308.852 65.7127 308.323 65.1753 307.647 64.794C306.989 64.3953 306.217 64.196 305.333 64.196C304.467 64.196 303.695 64.3953 303.019 64.794C302.343 65.1753 301.815 65.7213 301.433 66.432C301.052 67.1253 300.861 67.9227 300.861 68.824V69.24C300.861 70.1587 301.069 70.982 301.485 71.71C301.919 72.4207 302.517 72.9753 303.279 73.374C304.042 73.7727 304.917 73.972 305.905 73.972C306.72 73.972 307.457 73.8333 308.115 73.556C308.791 73.2787 309.381 72.8627 309.883 72.308L311.261 73.92C310.637 74.648 309.857 75.2027 308.921 75.584C308.003 75.9653 306.971 76.156 305.827 76.156ZM323.324 76.156C322.18 76.156 321.131 75.896 320.178 75.376C319.242 74.8387 318.488 74.05 317.916 73.01C317.361 71.97 317.084 70.67 317.084 69.11C317.084 67.55 317.352 66.25 317.89 65.21C318.444 64.17 319.19 63.39 320.126 62.87C321.079 62.35 322.145 62.09 323.324 62.09C324.676 62.09 325.872 62.3847 326.912 62.974C327.952 63.5633 328.775 64.3867 329.382 65.444C329.988 66.484 330.292 67.706 330.292 69.11C330.292 70.514 329.988 71.7447 329.382 72.802C328.775 73.8593 327.952 74.6827 326.912 75.272C325.872 75.8613 324.676 76.156 323.324 76.156ZM316.018 81.044V62.22H318.41V65.938L318.254 69.136L318.514 72.334V81.044H316.018ZM323.116 73.972C324 73.972 324.788 73.7727 325.482 73.374C326.192 72.9753 326.747 72.412 327.146 71.684C327.562 70.9387 327.77 70.0807 327.77 69.11C327.77 68.122 327.562 67.2727 327.146 66.562C326.747 65.834 326.192 65.2707 325.482 64.872C324.788 64.4733 324 64.274 323.116 64.274C322.249 64.274 321.46 64.4733 320.75 64.872C320.056 65.2707 319.502 65.834 319.086 66.562C318.687 67.2727 318.488 68.122 318.488 69.11C318.488 70.0807 318.687 70.9387 319.086 71.684C319.502 72.412 320.056 72.9753 320.75 73.374C321.46 73.7727 322.249 73.972 323.116 73.972ZM347.542 76V62.22H350.038V76H347.542ZM340.132 66.9C341.883 66.9173 343.209 67.316 344.11 68.096C345.029 68.876 345.488 69.9767 345.488 71.398C345.488 72.8887 344.985 74.0413 343.98 74.856C342.992 75.6533 341.571 76.0433 339.716 76.026L333.918 76V62.22H336.414V66.874L340.132 66.9ZM339.534 74.128C340.643 74.1453 341.493 73.92 342.082 73.452C342.671 72.984 342.966 72.2907 342.966 71.372C342.966 70.4707 342.671 69.812 342.082 69.396C341.51 68.98 340.661 68.7633 339.534 68.746L336.414 68.694V74.102L339.534 74.128ZM369.179 76.156C368.035 76.156 366.986 75.896 366.033 75.376C365.097 74.8387 364.343 74.05 363.771 73.01C363.216 71.97 362.939 70.67 362.939 69.11C362.939 67.55 363.208 66.25 363.745 65.21C364.3 64.17 365.045 63.39 365.981 62.87C366.934 62.35 368 62.09 369.179 62.09C370.531 62.09 371.727 62.3847 372.767 62.974C373.807 63.5633 374.63 64.3867 375.237 65.444C375.844 66.484 376.147 67.706 376.147 69.11C376.147 70.514 375.844 71.7447 375.237 72.802C374.63 73.8593 373.807 74.6827 372.767 75.272C371.727 75.8613 370.531 76.156 369.179 76.156ZM361.873 81.044V62.22H364.265V65.938L364.109 69.136L364.369 72.334V81.044H361.873ZM368.971 73.972C369.855 73.972 370.644 73.7727 371.337 73.374C372.048 72.9753 372.602 72.412 373.001 71.684C373.417 70.9387 373.625 70.0807 373.625 69.11C373.625 68.122 373.417 67.2727 373.001 66.562C372.602 65.834 372.048 65.2707 371.337 64.872C370.644 64.4733 369.855 64.274 368.971 64.274C368.104 64.274 367.316 64.4733 366.605 64.872C365.912 65.2707 365.357 65.834 364.941 66.562C364.542 67.2727 364.343 68.122 364.343 69.11C364.343 70.0807 364.542 70.9387 364.941 71.684C365.357 72.412 365.912 72.9753 366.605 73.374C367.316 73.7727 368.104 73.972 368.971 73.972ZM388.097 76V73.088L387.967 72.542V67.576C387.967 66.5187 387.655 65.704 387.031 65.132C386.424 64.5427 385.505 64.248 384.275 64.248C383.46 64.248 382.663 64.3867 381.883 64.664C381.103 64.924 380.444 65.2793 379.907 65.73L378.867 63.858C379.577 63.286 380.427 62.8527 381.415 62.558C382.42 62.246 383.469 62.09 384.561 62.09C386.45 62.09 387.906 62.5493 388.929 63.468C389.951 64.3867 390.463 65.7907 390.463 67.68V76H388.097ZM383.573 76.156C382.55 76.156 381.649 75.9827 380.869 75.636C380.106 75.2893 379.517 74.8127 379.101 74.206C378.685 73.582 378.477 72.88 378.477 72.1C378.477 71.3547 378.65 70.6787 378.997 70.072C379.361 69.4653 379.941 68.98 380.739 68.616C381.553 68.252 382.645 68.07 384.015 68.07H388.383V69.864H384.119C382.871 69.864 382.03 70.072 381.597 70.488C381.163 70.904 380.947 71.4067 380.947 71.996C380.947 72.672 381.215 73.218 381.753 73.634C382.29 74.0327 383.035 74.232 383.989 74.232C384.925 74.232 385.739 74.024 386.433 73.608C387.143 73.192 387.655 72.5853 387.967 71.788L388.461 73.504C388.131 74.3187 387.551 74.9687 386.719 75.454C385.887 75.922 384.838 76.156 383.573 76.156ZM401.327 76.208C400.183 76.208 399.169 76.026 398.285 75.662C397.418 75.298 396.673 74.7607 396.049 74.05C395.425 73.322 394.948 72.412 394.619 71.32C394.307 70.2107 394.151 68.9107 394.151 67.42C394.151 66.2413 394.255 65.184 394.463 64.248C394.671 63.312 394.966 62.48 395.347 61.752C395.746 61.024 396.231 60.3913 396.803 59.854C397.392 59.3167 398.051 58.8747 398.779 58.528C399.524 58.164 400.339 57.8867 401.223 57.696L407.515 56.292L407.879 58.606L402.081 59.854C401.734 59.9233 401.318 60.0273 400.833 60.166C400.348 60.3047 399.854 60.5213 399.351 60.816C398.848 61.0933 398.38 61.4833 397.947 61.986C397.514 62.4887 397.167 63.1473 396.907 63.962C396.647 64.7593 396.517 65.7473 396.517 66.926C396.517 67.2553 396.526 67.5067 396.543 67.68C396.56 67.8533 396.578 68.0267 396.595 68.2C396.63 68.3733 396.656 68.6333 396.673 68.98L395.633 67.914C395.91 66.9607 396.352 66.1287 396.959 65.418C397.566 64.7073 398.294 64.1613 399.143 63.78C400.01 63.3813 400.954 63.182 401.977 63.182C403.26 63.182 404.395 63.4593 405.383 64.014C406.388 64.5687 407.177 65.3313 407.749 66.302C408.321 67.2727 408.607 68.382 408.607 69.63C408.607 70.8953 408.304 72.0307 407.697 73.036C407.108 74.024 406.267 74.804 405.175 75.376C404.083 75.9307 402.8 76.208 401.327 76.208ZM401.561 74.128C402.445 74.128 403.225 73.9373 403.901 73.556C404.577 73.1573 405.106 72.6287 405.487 71.97C405.868 71.294 406.059 70.54 406.059 69.708C406.059 68.876 405.868 68.1393 405.487 67.498C405.106 66.8567 404.577 66.354 403.901 65.99C403.225 65.6087 402.428 65.418 401.509 65.418C400.642 65.418 399.862 65.6 399.169 65.964C398.476 66.3107 397.938 66.8047 397.557 67.446C397.176 68.07 396.985 68.798 396.985 69.63C396.985 70.462 397.176 71.2247 397.557 71.918C397.956 72.594 398.493 73.1313 399.169 73.53C399.862 73.9287 400.66 74.128 401.561 74.128ZM418.074 76.156C416.687 76.156 415.457 75.8527 414.382 75.246C413.307 74.6393 412.458 73.8073 411.834 72.75C411.21 71.6753 410.898 70.462 410.898 69.11C410.898 67.7407 411.21 66.5273 411.834 65.47C412.458 64.4127 413.307 63.5893 414.382 63C415.457 62.3933 416.687 62.09 418.074 62.09C419.443 62.09 420.665 62.3933 421.74 63C422.832 63.5893 423.681 64.4127 424.288 65.47C424.912 66.51 425.224 67.7233 425.224 69.11C425.224 70.4793 424.912 71.6927 424.288 72.75C423.681 73.8073 422.832 74.6393 421.74 75.246C420.665 75.8527 419.443 76.156 418.074 76.156ZM418.074 73.972C418.958 73.972 419.747 73.7727 420.44 73.374C421.151 72.9753 421.705 72.412 422.104 71.684C422.503 70.9387 422.702 70.0807 422.702 69.11C422.702 68.122 422.503 67.2727 422.104 66.562C421.705 65.834 421.151 65.2707 420.44 64.872C419.747 64.4733 418.958 64.274 418.074 64.274C417.19 64.274 416.401 64.4733 415.708 64.872C415.015 65.2707 414.46 65.834 414.044 66.562C413.628 67.2727 413.42 68.122 413.42 69.11C413.42 70.0807 413.628 70.9387 414.044 71.684C414.46 72.412 415.015 72.9753 415.708 73.374C416.401 73.7727 417.19 73.972 418.074 73.972ZM431.05 76V63.754L431.674 64.404H426.006V62.22H438.59V64.404H432.948L433.546 63.754V76H431.05Z" fill="white"/>
<defs>
<filter id="filter0_d_5_12" x="0" y="0" width="497" height="144" filterUnits="userSpaceOnUse" color-interpolation-filters="sRGB">
<feFlood flood-opacity="0" result="BackgroundImageFix"/>
<feColorMatrix in="SourceAlpha" type="matrix" values="0 0 0 0 0 0 0 0 0 0 0 0 0 0 0 0 0 0 127 0" result="hardAlpha"/>
<feMorphology radius="1" operator="dilate" in="SourceAlpha" result="effect1_dropShadow_5_12"/>
<feOffset dx="5" dy="5"/>
<feGaussianBlur stdDeviation="16"/>
<feComposite in2="hardAlpha" operator="out"/>
<feColorMatrix type="matrix" values="0 0 0 0 0.466667 0 0 0 0 0.580392 0 0 0 0 0.74902 0 0 0 0.45 0"/>
<feBlend mode="normal" in2="BackgroundImageFix" result="effect1_dropShadow_5_12"/>
<feBlend mode="normal" in="SourceGraphic" in2="effect1_dropShadow_5_12" result="shape"/>
</filter>
<linearGradient id="paint0_linear_5_12" x1="38" y1="-123" x2="408.5" y2="157" gradientUnits="userSpaceOnUse">
<stop stop-color="#D87DCF" stop-opacity="0.99"/>
<stop offset="1" stop-color="#30A5B5"/>
</linearGradient>
</defs>
</svg>
